<svg id="Layer_1" data-name="Layer 1" xmlns="http://www.w3.org/2000/svg" viewBox="0 0 340.99 84.08"><defs><style>.cls-1{fill:#ed1b33;}</style></defs><path class="cls-1" d="M298.25,378v15.17a1.92,1.92,0,0,1-1.92,1.92h-5.51a1.91,1.91,0,0,1-1.92-1.92V345.62a1.92,1.92,0,0,1,1.92-1.93h5.71a1.73,1.73,0,0,1,1.72,1.73V378Z" transform="translate(-78.7 -334.35)"/><path class="cls-1" d="M377.65,393.15a1.92,1.92,0,0,1-1.92,1.92h-5.51a1.91,1.91,0,0,1-1.92-1.92V345.62a1.92,1.92,0,0,1,1.92-1.93h5.71a1.73,1.73,0,0,1,1.72,1.73Z" transform="translate(-78.7 -334.35)"/><path class="cls-1" d="M145.13,375a33.05,33.05,0,0,1-48.74,0,1.71,1.71,0,0,1,.07-2.37l4.23-4.24a1.72,1.72,0,0,1,2.51.08,23.34,23.34,0,0,0,35-.11,1.71,1.71,0,0,1,2.51-.09l4.32,4.32a1.73,1.73,0,0,1,.07,2.38m-13.42-40.64H83.05a4.35,4.35,0,0,0-4.35,4.35l0,75.39a4.34,4.34,0,0,0,4.34,4.34h48.64a31,31,0,0,0,31-31.05v-22a31,31,0,0,0-31-31" transform="translate(-78.7 -334.35)"/><path class="cls-1" d="M204.82,385.73H190.14a4,4,0,0,1-4-4V371.05a4,4,0,0,1,4-4h14.69Zm7.62-42h-5.9a1.72,1.72,0,0,0-1.72,1.73V357.7H189.67a13.26,13.26,0,0,0-2.54.25,13.53,13.53,0,0,0-10.34,13.14v10.46a13.52,13.52,0,0,0,13.52,13.52h9.08a1.7,1.7,0,0,0,1-.33l.2-.17h0l4.21-4.22v3a1.73,1.73,0,0,0,1.73,1.72h5.75a1.94,1.94,0,0,0,1.83-1.31,1.36,1.36,0,0,0,0-.29V345.42a1.72,1.72,0,0,0-1.72-1.73" transform="translate(-78.7 -334.35)"/><path class="cls-1" d="M354.29,385.79H339.56a4,4,0,0,1-4-4V371a4,4,0,0,1,4-4h14.73Zm7.62-28.09H339.14a13.26,13.26,0,0,0-2.54.25,13.53,13.53,0,0,0-10.34,13.14v10.46a13.52,13.52,0,0,0,13.52,13.52h9.13a1.68,1.68,0,0,0,1.21-.5l4.27-4.21v2.77a1.94,1.94,0,0,0,1.94,1.94h5.44a1.94,1.94,0,0,0,1.83-1.31.86.86,0,0,0,0-.28V359.43a1.73,1.73,0,0,0-1.72-1.73" transform="translate(-78.7 -334.35)"/><path class="cls-1" d="M410.35,385.79H395.62a4,4,0,0,1-4-4V371a4,4,0,0,1,4-4h14.74ZM418,357.7H395.19a12.86,12.86,0,0,0-12.87,13.39v10.46a13.52,13.52,0,0,0,13.52,13.52H405a1.72,1.72,0,0,0,1.21-.5l4.26-4.21v2.77a2,2,0,0,0,1.95,1.94h5.44a1.94,1.94,0,0,0,1.83-1.31,1.27,1.27,0,0,0,0-.28V359.43A1.73,1.73,0,0,0,418,357.7" transform="translate(-78.7 -334.35)"/><path class="cls-1" d="M260.87,385.73H246.18a4,4,0,0,1-4-4V371.05a4,4,0,0,1,4-4h14.68ZM270.18,359a1.94,1.94,0,0,0-1.83-1.31H262.6a1.72,1.72,0,0,0-1.73,1.73v2.92l0,0-4.1-4.11a2,2,0,0,0-1.22-.5h-9.16a13.51,13.51,0,0,0-13.51,13.52v10.46a13.52,13.52,0,0,0,10.33,13.14,13.26,13.26,0,0,0,2.54.25h15.15v.23a4.37,4.37,0,0,1-4.44,4.46h-11.5a2.72,2.72,0,0,0-2,4.64l3.69,3.76a2.71,2.71,0,0,0,2,.82h7.84a13.72,13.72,0,0,0,4.69-.82,13.87,13.87,0,0,0,9.06-13.13V359.33a1.36,1.36,0,0,0,0-.29" transform="translate(-78.7 -334.35)"/><path class="cls-1" d="M228.18,359.43v33.92a1.73,1.73,0,0,1-1.73,1.72h-5.89a1.72,1.72,0,0,1-1.73-1.72V359.43a1.73,1.73,0,0,1,1.73-1.73h5.89a1.74,1.74,0,0,1,1.73,1.73" transform="translate(-78.7 -334.35)"/><path class="cls-1" d="M228.18,345.42v5.89a1.73,1.73,0,0,1-1.73,1.72h-5.89a1.72,1.72,0,0,1-1.73-1.72v-5.89a1.72,1.72,0,0,1,1.73-1.73h5.89a1.73,1.73,0,0,1,1.73,1.73" transform="translate(-78.7 -334.35)"/><path class="cls-1" d="M284.23,359.43v33.92a1.73,1.73,0,0,1-1.73,1.72h-5.89a1.73,1.73,0,0,1-1.73-1.72V359.43a1.74,1.74,0,0,1,1.73-1.73h5.89a1.74,1.74,0,0,1,1.73,1.73" transform="translate(-78.7 -334.35)"/><path class="cls-1" d="M284.23,345.42v5.89A1.73,1.73,0,0,1,282.5,353h-5.89a1.73,1.73,0,0,1-1.73-1.72v-5.89a1.73,1.73,0,0,1,1.73-1.73h5.89a1.73,1.73,0,0,1,1.73,1.73" transform="translate(-78.7 -334.35)"/><path class="cls-1" d="M298.25,375.42c1.88-2,13.4-13.39,16.8-17.05a2.05,2.05,0,0,1,1.47-.64h7.74a2,2,0,0,1,1.47,3.32c-4.76,4.76-15.5,15.35-15.5,15.35l15.51,15.66a1.76,1.76,0,0,1-1.26,3h-8.09a2,2,0,0,1-1.46-.63c-3.43-3.68-14.87-15-16.68-16.92Z" transform="translate(-78.7 -334.35)"/></svg>