<svg xmlns="http://www.w3.org/2000/svg" xmlns:xlink="http://www.w3.org/1999/xlink" height="800" width="1200" viewBox="-76.5354 -45.02025 663.3068 270.1215"><path fill="#231F20" d="M176.278 87.345h4.032v4.083h-4.032z"/><g transform="translate(-28.346 -28.349)"><defs><path id="a" d="M0 0h566.929v236.778H0z"/></defs><clipPath id="b"><use height="100%" width="100%" overflow="visible" xlink:href="#a"/></clipPath><path d="M241.752 115.694v12.955c0 .509-.061.989-.183 1.431v.008c-.322 1.178-1.064 2.146-2.227 2.904-1.417.94-3.085 1.407-5.011 1.407h-4.557l.645 4.153h5.369c2.943 0 5.375-1.073 7.3-3.221a10.986 10.986 0 002.574-5.252v-.002c.146-.77.22-1.569.22-2.405v-11.979h-4.13zm91.596-6.752l-3.029 2.719 2.672 2.745c-1.513-1.464-3.133-2.196-4.868-2.196-1.894 0-3.455.617-4.689 1.849-1.231 1.234-1.849 2.814-1.849 4.738 0 1.719.723 3.571 2.172 5.559h-3.986c-1.319-.079-2.112-.19-2.384-.334-.652-.206-1.019-.811-1.097-1.81-.049-.255-.073-.81-.073-1.666-.049-2.255-.62-4.167-1.718-5.741-1.275-1.697-2.991-2.546-5.155-2.546-2.386 0-4.221.808-5.511 2.428-1.177 1.476-1.765 3.428-1.765 5.859 0 1.842-.09 2.896-.264 3.167-.414.43-1.134.643-2.41.643-1.561-.049-2.87-.415-3.937-1.098-.714-.494-1.695-1.447-2.936-2.864l-12.528-13.242h13.781v-4.008h-23.419l17.394 17.896c.287.303.429.707.429 1.216 0 1.398-.539 2.101-1.623 2.101h-25.667c-1.988-.079-3.188-.246-3.601-.502-.622-.396-.931-1.549-.931-3.46v-17.25h-4.008v19.064c0 1.942.436 3.324 1.311 4.152 1.416 1.335 3.826 2.005 7.229 2.005h25.621c2.897 0 4.757-.979 5.584-2.935 1.433 1.955 3.864 2.935 7.301 2.935 2.422 0 4.225-.811 4.558-2.339.493.779 1.253 1.464 2.28 2.052 1.023.588 2.016.886 2.97.886 2.547 0 4.415-.98 5.604-2.938.575.987 1.268 1.647 2.077 1.979.573.24 1.536.359 2.887.359h2.889a13.542 13.542 0 005.799-1.431c3.388 2.034 6.155 3.053 8.303 3.053 1.749 0 3.297-.724 4.642-2.172 1.343-1.448 2.015-3.055 2.015-4.819-.002-2.992-3.358-7.675-10.07-14.054m-24.171 16.011c-2.339 0-3.51-1.416-3.51-4.247 0-3.039 1.171-4.559 3.51-4.559 2.243 0 3.364 1.418 3.364 4.247 0 3.04-1.121 4.559-3.364 4.559m19.373-2.314c-2.113-.844-3.174-2.122-3.174-3.841 0-.795.216-1.465.646-2.005.431-.588 1.002-.884 1.719-.884.937 0 1.745.296 2.421.884.675.588 1.014 1.352 1.014 2.29 0 1.59-.874 2.776-2.626 3.556m7.97 3.125c-1.129 0-2.433-.438-3.911-1.313 1.623-.857 2.434-2.561 2.434-5.104 0-1.67-.421-2.974-1.264-3.915 3.562 3.613 5.343 6.228 5.343 7.852-.001 1.654-.868 2.48-2.602 2.48m-121.228 2.885c0 .502-.057.975-.164 1.429-.26 1.065-.822 1.99-1.685 2.771-1.235 1.115-2.716 1.671-4.452 1.671h-5.2c-1.735 0-3.231-.541-4.485-1.623-.949-.813-1.563-1.752-1.848-2.817a5.502 5.502 0 01-.181-1.431v-8.899h-3.96v8.4c0 .661.05 1.304.151 1.93h.002c.331 2.011 1.194 3.793 2.589 5.348 1.877 2.084 4.192 3.125 6.944 3.125h6.227c3.103 0 5.584-1.024 7.445-3.077 1.304-1.493 2.134-3.287 2.482-5.39h.001c.127-.767.189-1.569.189-2.412v-11.979h-4.055zm10.57-25.504h3.912v25.221h-3.912zm-88.721 30.2h4.032v4.084h-4.032zm6.141 0h4.032v4.084h-4.032zm31.229-10.97c0 1.718-.931 2.578-2.793 2.578-.971 0-1.797-.317-2.482-.955-.683-.636-1.025-1.432-1.025-2.386v-5.917h-3.864v6.68c0 1.718-.949 2.578-2.842 2.578-.952 0-1.764-.317-2.432-.955-.668-.636-1.002-1.432-1.002-2.386v-5.917h-3.984v5.608c0 2.035-.948 3.053-2.842 3.053h-3.22c-1.465 0-2.427-.166-2.888-.501-.636-.395-.953-1.272-.953-2.623v-5.537h-4.035v5.537c0 1.144-.212 1.952-.643 2.419-.429.471-1.208.705-2.336.705h-5.967c-1.845-.127-2.919-.263-3.221-.403-.956-.43-1.431-1.113-1.431-2.054v-6.204h-3.985v6.697c0 1.724-.93 2.585-2.792 2.585-.971 0-1.782-.327-2.434-.981-.699-.622-1.049-1.411-1.049-2.366v-5.934h-4.01v6.697c0 1.724-.922 2.585-2.767 2.585-.923 0-1.727-.31-2.409-.933-.685-.622-1.027-1.412-1.027-2.369v-5.98h-3.914v5.155c0 1.446-.382 2.424-1.144 2.935-.637.383-1.848.571-3.294.571H72.13c-1.463 0-2.434-.166-2.909-.501-.607-.395-.907-1.272-.907-2.623v-5.537h-4.059v5.537c0 1.144-.213 1.952-.644 2.419-.428.471-1.2.705-2.314.705H55.38c-2.974-.031-4.461-.929-4.461-2.689 0-6.271-2.156-9.406-6.466-9.406h-8.185c-2.609 0-4.589.786-5.941 2.358-1.321 1.448-1.981 3.464-1.981 6.056v17.879h3.889v-18.397c0-1.161.47-2.13 1.409-2.912.843-.731 1.876-1.097 3.101-1.097v4.939c0 2.259.692 4.085 2.076 5.476 1.384 1.393 3.173 2.087 5.368 2.087 2.513 0 4.209-1.071 5.084-3.22.81 1.272 1.677 2.085 2.6 2.436.684.331 1.852.5 3.507.5h7.182c1.209 0 2.459-.542 3.747-1.622.716.62 1.415 1.09 2.1 1.407.778.159 2.019.229 3.721.215h22.725c2.56 0 3.97-.07 4.924-.215 2.115-.317 3.603-1.041 4.462-2.171 1.447 1.925 3.238 2.887 5.369 2.887 2.401 0 4.374-.907 5.917-2.722 1.83 1.814 3.673 2.722 5.537 2.722 1.907 0 3.449-.883 4.628-2.648.571.954 1.367 1.558 2.385 1.812.543.191 1.583.303 3.126.336h7.23c1.256 0 2.521-.542 3.793-1.622.734.667 1.417 1.138 2.052 1.407.829.159 2.078.229 3.747.215h3.531c1.909 0 3.659-.923 5.25-2.77 1.861 2.132 3.698 3.198 5.511 3.198 1.733 0 3.365-.89 4.892-2.672 1.75 1.829 3.563 2.744 5.44 2.744 1.958 0 3.437-.724 4.439-2.17.907-1.18 1.358-2.776 1.358-4.798v-6.204h-3.935zM43.88 124.571c-.891 0-1.616-.216-2.171-.645-.701-.509-1.05-1.202-1.05-2.077v-5.702c3.181.08 5.066.414 5.655 1.003.462.477.691 1.733.691 3.769 0 2.433-1.041 3.652-3.125 3.652m15.151-17.923h4.032v4.085h-4.032zm-6.143 0h4.032v4.085h-4.032zm-7.694 54.512H33.022v4.334h11.503c1.786 0 2.998.343 3.639 1.02.642.654.962 1.936.962 3.85v2.825c0 1.916-.32 3.215-.962 3.896-.641.649-1.853.975-3.639.975H33.022c-1.785 0-3.012-.325-3.683-.975-.64-.682-.959-1.98-.959-3.896v-1.411h3.848v2.436h13.009v-4.725H33.776c-1.758 0-2.971-.327-3.64-.977-.67-.682-1.004-1.979-1.004-3.895v-2.29c0-1.914.334-3.196 1.004-3.846.669-.683 1.882-1.023 3.64-1.023h10.499c1.699 0 2.898.309 3.596.926.697.617 1.047 1.802 1.047 3.554v1.413h-3.724zm6.899-3.703h5.814l6.317 7.695 6.398-7.695h5.062l-9.62 11.249v9.354h-4.308v-9.252zm43.45 3.703H83.372v4.334h11.502c1.783 0 2.998.343 3.64 1.02.641.654.961 1.936.961 3.85v2.825c0 1.916-.32 3.215-.961 3.896-.642.649-1.857.975-3.64.975H83.372c-1.787 0-3.014-.325-3.683-.975-.641-.682-.961-1.98-.961-3.896v-1.411h3.847v2.436h13.01v-4.725h-11.46c-1.757 0-2.972-.327-3.64-.977-.669-.682-1.004-1.979-1.004-3.895v-2.29c0-1.914.335-3.196 1.004-3.846.668-.683 1.883-1.023 3.64-1.023h10.497c1.701 0 2.9.309 3.599.926.696.617 1.045 1.802 1.045 3.554v1.413h-3.723zm15.903 16.9v-16.9h-8.533v-3.702h21.417v3.702h-8.577v16.9zm35.772-20.603v3.652H132.58v4.482h8.531v3.556h-8.531v5.066h14.848v3.847h-19.199v-20.603zm10.503 0l8.659 12.224 8.617-12.224h3.47v20.603h-4.014v-14.172l-7.905 11.685h-.837l-7.99-11.345v13.832h-3.471v-20.603zm53.389 3.801h-13.469v12.856h13.469v-4.385h-7.027v-3.651h11.254v7.11c0 1.916-.322 3.216-.962 3.896-.643.649-1.854.975-3.64.975h-12.799c-1.785 0-2.998-.325-3.639-.975-.642-.681-.961-1.98-.961-3.896v-10.861c0-1.914.319-3.196.961-3.846.668-.683 1.883-1.023 3.639-1.023h12.799c1.731 0 2.929.325 3.598.975.667.615 1.004 1.835 1.004 3.651v1.365h-4.227z" fill="#231F20" clip-path="url(#b)"/><path d="M226.141 178.06v-20.602h15.936c2.761 0 4.14 1.33 4.14 3.994v4.87c0 2.629-1.379 3.943-4.14 3.943h-2.425l8.406 7.794h-6.189l-7.404-7.794h-4.058v7.794h-4.266zm14.097-17.046h-9.831v5.696h9.831c1.311 0 1.964-.55 1.964-1.653v-2.389c0-1.102-.653-1.654-1.964-1.654m16.388 1.313c0-1.946.32-3.245.961-3.895.642-.649 1.854-.975 3.64-.975h13.676c1.785 0 2.999.325 3.639.975.643.649.963 1.948.963 3.895v10.861c0 1.916-.334 3.215-1.003 3.896-.64.649-1.841.975-3.599.975h-13.676c-1.786 0-2.998-.325-3.64-.975-.641-.682-.961-1.98-.961-3.896zm4.306 11.787h14.266v-12.855h-14.266z" fill="#231F20" clip-rule="evenodd" fill-rule="evenodd" clip-path="url(#b)"/><path d="M294.807 157.458v16.755h12.298v-16.755h4.349v15.73c0 1.916-.334 3.215-1.001 3.896-.641.649-1.856.975-3.64.975h-11.716c-1.783 0-2.994-.325-3.638-.975-.64-.682-.962-1.98-.962-3.896v-15.73z" fill="#231F20" clip-path="url(#b)"/><path d="M337.442 161.014h-9.829v5.454h9.829c1.31 0 1.967-.555 1.967-1.656v-2.144c0-1.102-.657-1.654-1.967-1.654m-14.096 17.046v-20.603h15.937c1.452 0 2.495.31 3.138.927.669.617 1.003 1.638 1.003 3.068v4.577c0 2.665-1.379 3.994-4.141 3.994h-11.669v8.036h-4.268z" fill="#231F20" clip-rule="evenodd" fill-rule="evenodd" clip-path="url(#b)"/><path fill="#D71920" clip-path="url(#b)" d="M538.52 193.424v14.997l-165.064.009.009-15.006"/><path d="M523.518 178.415v-60.033h-15.009l.008-15.005h28.487c.872 0 1.578.706 1.578 1.579l-.055 71.88c0 .873-.705 1.579-1.578 1.579z" fill="#231F20" clip-rule="evenodd" fill-rule="evenodd" clip-path="url(#b)"/><path d="M478.499 163.415h-15.005V29.927c0-.871.706-1.578 1.577-1.578h71.868c.873 0 1.58.707 1.58 1.578v28.448h-15.005V43.362h-45.016m-45.066 135.053v-60.033h-15.009l.008-15.005h28.486c.872 0 1.578.706 1.578 1.579l-.054 71.88c0 .873-.706 1.579-1.579 1.579zm-44.979-75.033h-15.005V29.927c0-.872.706-1.578 1.578-1.578h71.869c.872 0 1.579.706 1.579 1.578v28.448h-15.006V43.362h-45.016" fill="#231F20" clip-rule="evenodd" fill-rule="evenodd" clip-path="url(#b)"/></g></svg>