<svg viewBox="1000 200" fill="none" xmlns="http://www.w3.org/2000/svg"><path d="M38.529 0H0v38.544h38.529V0z" fill="#E33226"/><path d="M31.614 29.649H6.915v1.977h24.699V29.65zM8.892 8.895h8.891V6.918H6.915v11.864h1.977V8.895zm8.891 17.791v-9.882h-5.93v1.978h3.954v7.904h1.976zm13.831-9.882h-5.925v1.978h3.948v7.904h1.977v-9.882z" fill="#fff"/><path d="M22.722 8.895h8.892V6.918H20.745v19.768h1.977V8.896z" fill="#fff"/><path d="M55.348 4.1l-2.017-2.04-2.023 2.04 2.023 2.018 2.017-2.019z" fill="#6D6E71"/><path d="M52.923 16.345c3.705 0 7.601-1.379 7.601-4.414V3.196L56.52 4.29l1.083 7.512a20.634 20.634 0 01-4.03.423c-1.63 0-2.312-.315-2.312-1.585 0-.516.031-1.084.227-3.495h-3.385c-.17 2.483-.206 3.34-.206 3.996-.021 3.49 1.64 5.204 5.026 5.204zm12.999-1.838l-.02-13.345-3.881.495.609 12.85h3.292z" fill="#6D6E71"/><path d="M64.266 15.865v3.8c.492.105.993.158 1.496.16 3.613 0 6.312-2.953 6.312-6.965 0-2.194-.119-3.464-.227-6.133l-4.01.66 1.321 6.036c-.944 2.008-2.302 2.41-4.892 2.442zm46.626-13.8l-.135 1.61a5.214 5.214 0 00-4.076 5.091 5.124 5.124 0 00.918 2.943h-2.518c-2.152 0-2.152 0-4.583-2.236L97.402 6.65c-4.252 5.06-4.252 5.06-6.286 5.06h-3.24V9.484c0-3.036-.269-3.712-2.648-4.559l-1.548-.552 4.459-.465L88.443 0l-7.462 1.518-1.032 5.22 3.664 1.249c1.15.392 1.16.392 1.16 2.147v1.224a23.214 23.214 0 01-4.55.371h-3.17V1.142l-3.839.594.227 8.931c.076 3.28 1.822 4.922 5.238 4.925h1.549c2.373 0 4.68-.18 6.135-1.192a4.762 4.762 0 003.417 1.192h1.419a3.219 3.219 0 002.529-.877c.562 2.854 2.203 3.96 4.025 3.96 1.95 0 3.395-1.756 4.066-3.93 1.239.847 2.095.847 3.525.847h1.285c2.637 0 3.845-.366 5.331-1.667h7.741l.263-4.518c.289-4.522-2.962-5.317-9.072-7.341zm-12.938 12.54c-.65 0-1.238-.305-2.173-1.41l1.801-1.651 1.822 1.662c-.346.945-.888 1.4-1.45 1.4zm13.805-4.047c-1.409 0-2.245-.739-2.245-1.962 0-1.033.836-1.848 2.245-1.848v3.81zm5.341-.703v.682h-2.611V7.18c2.693.873 2.693.873 2.611 2.674zM67.16 24.078l-1.594-1.466-1.842 1.694 1.842 1.683 1.585-1.446L68.745 26l1.843-1.683-1.843-1.693-1.584 1.455zM96.03 38.08l-1.596-1.467-1.842 1.694 1.843 1.683 1.584-1.446L97.613 40l1.843-1.683-1.843-1.693-1.584 1.456z" fill="#6D6E71"/><path d="M116.511 31.74h-2.58v-4.61h-3.561v4.61h-3.339v-4.61h-3.56v4.61h-5.677v-4.894h-3.437v4.878h-4.242v-5.162l-3.932.588.573 4.554h-2.58V27.13h-3.567v4.61h-3.338v-4.61H73.71v4.61h-4.913v-4.894h-3.453v4.878h-3.013c-1.337 0-1.347 0-1.791-2.493l-.61-3.397-6.094.816c-4.34.583-5.945 2.323-5.945 6.912V39.2l4.015-.48-.805-7.682 1.084-.197c.377 5.68 2.296 6.65 3.7 6.65 1.404 0 2.75-.64 4.02-2.68a2.843 2.843 0 002.157.811h.883c1.827-.062 3.184-.516 4.087-1.26a4.726 4.726 0 003.339 1.26h.882a9.59 9.59 0 004.165-.903 7.28 7.28 0 003.499 1.073 6.191 6.191 0 003.416-1.073 4.968 4.968 0 003.138 1.156 4.175 4.175 0 002.993-1.213 3.545 3.545 0 002.58.955h.883c1.826-.062 3.183-.516 4.087-1.26a4.727 4.727 0 003.349 1.265h1.662a9.609 9.609 0 004.164-.903 7.28 7.28 0 003.504 1.068 6.158 6.158 0 003.416-1.073 8.109 8.109 0 003.695 1.073c2.173 0 3.928-1.45 3.928-4.068v-6.01l-3.912.62.691 5.41zm-61.41-1.29l2.461-.398.697 3.21c-2.42.496-2.993-.52-3.148-2.803l-.01-.01z" fill="#6D6E71"/></svg>